<svg display="block" id="2000906260" role="presentation" viewBox="0 0 13 13" xmlns="http://www.w3.org/2000/svg"><path d="M 10.229 4.634 L 8.119 6.454 L 8.762 9.176 C 8.835 9.478 8.718 9.795 8.467 9.978 C 8.215 10.161 7.878 10.174 7.613 10.012 L 5.246 8.555 L 2.877 10.011 C 2.612 10.172 2.276 10.158 2.025 9.975 C 1.774 9.792 1.658 9.477 1.73 9.175 L 2.375 6.453 L 0.266 4.633 C 0.032 4.43 -0.058 4.107 0.037 3.812 C 0.133 3.518 0.395 3.309 0.703 3.281 L 3.469 3.058 L 4.535 0.477 C 4.653 0.188 4.934 0 5.245 0 C 5.557 0 5.837 0.188 5.955 0.477 L 7.021 3.059 L 9.786 3.282 C 10.096 3.307 10.36 3.516 10.457 3.812 C 10.553 4.108 10.462 4.432 10.226 4.635 L 10.228 4.635 Z" fill="var(--pihg2i, var(--token-7d63c8e8-d682-45e7-9bc8-3bd1b1e95e5d, rgb(49, 112, 57)))" height="10.124907934621545px" id="J5O09fIKo" transform="translate(1 1)" width="10.494378471800374px"/></svg>